<mxfile host="app.diagrams.net" modified="2022-10-19T05:36:45.112Z" agent="5.0 (Windows NT 6.1; Win64; x64) AppleWebKit/537.36 (KHTML, like Gecko) Chrome/106.0.0.0 Safari/537.36" etag="tzvjO0issBQ6h6t-4imt" version="20.2.8" type="github">
  <diagram id="gzcLncfyu2RjhO8Vb5th" name="第 1 页">
    <mxGraphModel dx="1656" dy="574" grid="0" gridSize="10" guides="1" tooltips="1" connect="1" arrows="1" fold="1" page="0" pageScale="1" pageWidth="827" pageHeight="1169" math="0" shadow="0">
      <root>
        <mxCell id="0" />
        <mxCell id="1" parent="0" />
        <mxCell id="A8RhbO1rcjVdho5e5Z4h-17" value="&lt;p style=&quot;margin:0px;margin-top:4px;text-align:center;&quot;&gt;&lt;i&gt;&amp;lt;&amp;lt;Interface&amp;gt;&amp;gt;&lt;/i&gt;&lt;br&gt;MarketData&lt;/p&gt;&lt;hr size=&quot;1&quot;&gt;&lt;p style=&quot;margin:0px;margin-left:4px;&quot;&gt;+ field1: Type&lt;br&gt;+ field2: Type&lt;/p&gt;&lt;hr size=&quot;1&quot;&gt;&lt;p style=&quot;margin:0px;margin-left:4px;&quot;&gt;+ subscribe&amp;nbsp;(Type): Type&lt;br&gt;+ method2(Type, Type): Type&lt;/p&gt;" style="verticalAlign=top;align=left;overflow=fill;fontSize=12;fontFamily=Helvetica;html=1;hachureGap=4;" vertex="1" parent="1">
          <mxGeometry x="-257" y="119" width="190" height="140" as="geometry" />
        </mxCell>
        <mxCell id="A8RhbO1rcjVdho5e5Z4h-18" value="&lt;p style=&quot;margin:0px;margin-top:4px;text-align:center;&quot;&gt;CTPMarketData&lt;br&gt;&lt;/p&gt;&lt;hr size=&quot;1&quot;&gt;&lt;p style=&quot;margin:0px;margin-left:4px;&quot;&gt;+ field: Type&lt;/p&gt;&lt;hr size=&quot;1&quot;&gt;&lt;p style=&quot;margin:0px;margin-left:4px;&quot;&gt;+ method(): Type&lt;/p&gt;" style="verticalAlign=top;align=left;overflow=fill;fontSize=12;fontFamily=Helvetica;html=1;hachureGap=4;" vertex="1" parent="1">
          <mxGeometry x="-558" y="85" width="160" height="90" as="geometry" />
        </mxCell>
        <mxCell id="A8RhbO1rcjVdho5e5Z4h-19" value="&lt;p style=&quot;margin:0px;margin-top:4px;text-align:center;&quot;&gt;...MarketData&lt;br&gt;&lt;/p&gt;&lt;hr size=&quot;1&quot;&gt;&lt;p style=&quot;margin:0px;margin-left:4px;&quot;&gt;+ field: Type&lt;/p&gt;&lt;hr size=&quot;1&quot;&gt;&lt;p style=&quot;margin:0px;margin-left:4px;&quot;&gt;+ method(): Type&lt;/p&gt;" style="verticalAlign=top;align=left;overflow=fill;fontSize=12;fontFamily=Helvetica;html=1;hachureGap=4;" vertex="1" parent="1">
          <mxGeometry x="-555" y="205" width="160" height="90" as="geometry" />
        </mxCell>
        <mxCell id="A8RhbO1rcjVdho5e5Z4h-22" value="&lt;p style=&quot;margin:0px;margin-top:4px;text-align:center;&quot;&gt;DataCenter&lt;br&gt;&lt;/p&gt;&lt;hr size=&quot;1&quot;&gt;&lt;p style=&quot;margin:0px;margin-left:4px;&quot;&gt;+ field: Type&lt;/p&gt;&lt;hr size=&quot;1&quot;&gt;&lt;p style=&quot;margin:0px;margin-left:4px;&quot;&gt;+ method(): Type&lt;/p&gt;" style="verticalAlign=top;align=left;overflow=fill;fontSize=12;fontFamily=Helvetica;html=1;hachureGap=4;" vertex="1" parent="1">
          <mxGeometry x="71" y="89" width="160" height="90" as="geometry" />
        </mxCell>
        <mxCell id="A8RhbO1rcjVdho5e5Z4h-23" value="&lt;p style=&quot;margin:0px;margin-top:4px;text-align:center;&quot;&gt;&lt;i&gt;&amp;lt;&amp;lt;Interface&amp;gt;&amp;gt;&lt;/i&gt;&lt;br&gt;Trader&lt;/p&gt;&lt;hr size=&quot;1&quot;&gt;&lt;p style=&quot;margin:0px;margin-left:4px;&quot;&gt;+ field1: Type&lt;br&gt;+ field2: Type&lt;/p&gt;&lt;hr size=&quot;1&quot;&gt;&lt;p style=&quot;margin:0px;margin-left:4px;&quot;&gt;+ method1(Type): Type&lt;br&gt;+ method2(Type, Type): Type&lt;/p&gt;" style="verticalAlign=top;align=left;overflow=fill;fontSize=12;fontFamily=Helvetica;html=1;hachureGap=4;" vertex="1" parent="1">
          <mxGeometry x="-257" y="393" width="190" height="140" as="geometry" />
        </mxCell>
        <mxCell id="A8RhbO1rcjVdho5e5Z4h-25" value="&lt;p style=&quot;margin:0px;margin-top:4px;text-align:center;&quot;&gt;CTPTrader&lt;/p&gt;&lt;hr size=&quot;1&quot;&gt;&lt;p style=&quot;margin:0px;margin-left:4px;&quot;&gt;+ field: Type&lt;/p&gt;&lt;hr size=&quot;1&quot;&gt;&lt;p style=&quot;margin:0px;margin-left:4px;&quot;&gt;+ method(): Type&lt;/p&gt;" style="verticalAlign=top;align=left;overflow=fill;fontSize=12;fontFamily=Helvetica;html=1;hachureGap=4;" vertex="1" parent="1">
          <mxGeometry x="-543" y="369" width="160" height="90" as="geometry" />
        </mxCell>
        <mxCell id="A8RhbO1rcjVdho5e5Z4h-26" value="&lt;p style=&quot;margin:0px;margin-top:4px;text-align:center;&quot;&gt;...Trader&lt;/p&gt;&lt;hr size=&quot;1&quot;&gt;&lt;p style=&quot;margin:0px;margin-left:4px;&quot;&gt;+ field: Type&lt;/p&gt;&lt;hr size=&quot;1&quot;&gt;&lt;p style=&quot;margin:0px;margin-left:4px;&quot;&gt;+ method(): Type&lt;/p&gt;" style="verticalAlign=top;align=left;overflow=fill;fontSize=12;fontFamily=Helvetica;html=1;hachureGap=4;" vertex="1" parent="1">
          <mxGeometry x="-543" y="484" width="160" height="90" as="geometry" />
        </mxCell>
        <mxCell id="A8RhbO1rcjVdho5e5Z4h-27" value="" style="endArrow=block;dashed=1;endFill=0;endSize=12;html=1;rounded=0;sourcePerimeterSpacing=8;targetPerimeterSpacing=8;curved=1;exitX=1;exitY=0.5;exitDx=0;exitDy=0;entryX=0.001;entryY=0.348;entryDx=0;entryDy=0;entryPerimeter=0;" edge="1" parent="1" source="A8RhbO1rcjVdho5e5Z4h-18" target="A8RhbO1rcjVdho5e5Z4h-17">
          <mxGeometry width="160" relative="1" as="geometry">
            <mxPoint x="-363" y="133" as="sourcePoint" />
            <mxPoint x="-203" y="133.29000000000002" as="targetPoint" />
          </mxGeometry>
        </mxCell>
        <mxCell id="A8RhbO1rcjVdho5e5Z4h-28" value="" style="endArrow=block;dashed=1;endFill=0;endSize=12;html=1;rounded=0;sourcePerimeterSpacing=8;targetPerimeterSpacing=8;curved=1;exitX=1;exitY=0.5;exitDx=0;exitDy=0;entryX=0;entryY=0.75;entryDx=0;entryDy=0;" edge="1" parent="1" source="A8RhbO1rcjVdho5e5Z4h-19" target="A8RhbO1rcjVdho5e5Z4h-17">
          <mxGeometry width="160" relative="1" as="geometry">
            <mxPoint x="-390" y="188" as="sourcePoint" />
            <mxPoint x="-183" y="261.9999999999999" as="targetPoint" />
          </mxGeometry>
        </mxCell>
        <mxCell id="A8RhbO1rcjVdho5e5Z4h-29" value="" style="endArrow=block;dashed=1;endFill=0;endSize=12;html=1;rounded=0;sourcePerimeterSpacing=8;targetPerimeterSpacing=8;curved=1;exitX=1;exitY=0.5;exitDx=0;exitDy=0;" edge="1" parent="1" source="A8RhbO1rcjVdho5e5Z4h-25" target="A8RhbO1rcjVdho5e5Z4h-23">
          <mxGeometry width="160" relative="1" as="geometry">
            <mxPoint x="-485" y="227" as="sourcePoint" />
            <mxPoint x="-347" y="200.9999999999999" as="targetPoint" />
          </mxGeometry>
        </mxCell>
        <mxCell id="A8RhbO1rcjVdho5e5Z4h-30" value="" style="endArrow=block;dashed=1;endFill=0;endSize=12;html=1;rounded=0;sourcePerimeterSpacing=8;targetPerimeterSpacing=8;curved=1;exitX=1;exitY=0.5;exitDx=0;exitDy=0;" edge="1" parent="1" source="A8RhbO1rcjVdho5e5Z4h-26" target="A8RhbO1rcjVdho5e5Z4h-23">
          <mxGeometry width="160" relative="1" as="geometry">
            <mxPoint x="-373" y="424" as="sourcePoint" />
            <mxPoint x="-310" y="440.69879518072275" as="targetPoint" />
          </mxGeometry>
        </mxCell>
      </root>
    </mxGraphModel>
  </diagram>
</mxfile>
